<?xml version="1.0" encoding="UTF-8"?>
<svg width="2117px" height="693px" viewBox="0 0 2117 693" version="1.1" xmlns="http://www.w3.org/2000/svg" xmlns:xlink="http://www.w3.org/1999/xlink">
    <!-- Generator: Sketch 64 (93537) - https://sketch.com -->
    <title>Group</title>
    <desc>Created with Sketch.</desc>
    <defs>
        <linearGradient x1="49.9669239%" y1="100.039611%" x2="49.9669239%" y2="0.00376846707%" id="linearGradient-1">
            <stop stop-color="#106389" offset="0%"></stop>
            <stop stop-color="#81B6CD" offset="100%"></stop>
        </linearGradient>
        <linearGradient x1="49.9821069%" y1="99.9545239%" x2="49.9821069%" y2="-0.0414816727%" id="linearGradient-2">
            <stop stop-color="#106389" offset="0%"></stop>
            <stop stop-color="#81B6CD" offset="100%"></stop>
        </linearGradient>
        <linearGradient x1="49.9024196%" y1="100.038261%" x2="49.9024196%" y2="0.021266066%" id="linearGradient-3">
            <stop stop-color="#106389" offset="0%"></stop>
            <stop stop-color="#81B6CD" offset="100%"></stop>
        </linearGradient>
        <linearGradient x1="49.8194947%" y1="99.9486228%" x2="49.8194947%" y2="0.000746959553%" id="linearGradient-4">
            <stop stop-color="#106389" offset="0%"></stop>
            <stop stop-color="#81B6CD" offset="100%"></stop>
        </linearGradient>
        <linearGradient x1="49.9259287%" y1="100.043853%" x2="49.9259287%" y2="0.0806968676%" id="linearGradient-5">
            <stop stop-color="#106389" offset="0%"></stop>
            <stop stop-color="#81B6CD" offset="100%"></stop>
        </linearGradient>
        <linearGradient x1="50.0753634%" y1="99.9762046%" x2="50.0753634%" y2="0.00109533377%" id="linearGradient-6">
            <stop stop-color="#106389" offset="0%"></stop>
            <stop stop-color="#81B6CD" offset="100%"></stop>
        </linearGradient>
        <linearGradient x1="50.061237%" y1="100.037489%" x2="50.061237%" y2="0.0436016417%" id="linearGradient-7">
            <stop stop-color="#106389" offset="0%"></stop>
            <stop stop-color="#81B6CD" offset="100%"></stop>
        </linearGradient>
        <linearGradient x1="50.2221251%" y1="100.014733%" x2="50.2221251%" y2="-0.0339378123%" id="linearGradient-8">
            <stop stop-color="#106389" offset="0%"></stop>
            <stop stop-color="#81B6CD" offset="100%"></stop>
        </linearGradient>
        <linearGradient x1="49.9573264%" y1="99.9655255%" x2="49.9573264%" y2="-0.000541762325%" id="linearGradient-9">
            <stop stop-color="#106389" offset="0%"></stop>
            <stop stop-color="#81B6CD" offset="100%"></stop>
        </linearGradient>
        <linearGradient x1="49.9704011%" y1="100.022928%" x2="49.9704011%" y2="0%" id="linearGradient-10">
            <stop stop-color="#106389" offset="0%"></stop>
            <stop stop-color="#81B6CD" offset="100%"></stop>
        </linearGradient>
        <linearGradient x1="50.0111055%" y1="100.035214%" x2="50.0111055%" y2="0.0443445389%" id="linearGradient-11">
            <stop stop-color="#106389" offset="0%"></stop>
            <stop stop-color="#81B6CD" offset="100%"></stop>
        </linearGradient>
        <linearGradient x1="49.9958206%" y1="99.9840379%" x2="49.9958206%" y2="0.0437413139%" id="linearGradient-12">
            <stop stop-color="#106389" offset="0%"></stop>
            <stop stop-color="#81B6CD" offset="100%"></stop>
        </linearGradient>
        <linearGradient x1="50.0294291%" y1="99.982978%" x2="50.0294291%" y2="0.00367723595%" id="linearGradient-13">
            <stop stop-color="#106389" offset="0%"></stop>
            <stop stop-color="#81B6CD" offset="100%"></stop>
        </linearGradient>
        <linearGradient x1="49.9961909%" y1="100.06777%" x2="49.9961909%" y2="-0.0386694868%" id="linearGradient-14">
            <stop stop-color="#106389" offset="0%"></stop>
            <stop stop-color="#81B6CD" offset="100%"></stop>
        </linearGradient>
        <linearGradient x1="49.9648016%" y1="99.936567%" x2="49.9648016%" y2="-0.0489314084%" id="linearGradient-15">
            <stop stop-color="#106389" offset="0%"></stop>
            <stop stop-color="#81B6CD" offset="100%"></stop>
        </linearGradient>
    </defs>
    <g id="Symbols" stroke="none" stroke-width="1" fill="none" fill-rule="evenodd">
        <g id="co-logo-traced" fill-rule="nonzero">
            <g id="Group">
                <g transform="translate(0.977787, 0.000000)">
                    <path d="M1236.57221,1.42108547e-14 C1236.69221,0.28 1236.77221,0.79 1236.93221,0.82 C1244.68221,2.08 1251.27221,5.55 1257.55221,10.26 C1263.2902,14.5395575 1267.82369,20.2305332 1270.71221,26.78 C1272.62799,30.8648885 1273.99324,35.1859353 1274.77221,39.63 C1275.3263,42.6337319 1275.57091,45.6863639 1275.50221,48.74 C1275.23228,57.0501986 1272.78389,65.14366 1268.40221,72.21 C1264.60986,78.0828266 1259.63382,83.0997376 1253.79221,86.94 C1248.51221,90.46 1242.51221,91.94 1236.63221,93.8 C1235.27221,94.23 1233.63221,93.74 1232.16221,93.9 C1230.69221,94.06 1229.35221,95.01 1228.09221,94.78 C1222.55221,93.78 1216.89221,93.46 1211.53221,91.39 C1202.44221,87.88 1196.72221,83.39 1190.26221,75.23 C1187.07221,71.23 1185.14221,66.76 1183.14221,62.17 C1182.43221,60.55 1183.61221,58.4 1181.60221,57.31 C1181.97221,55.17 1180.92221,53.25 1180.68221,51.23 C1180.23227,48.4279477 1180.23227,45.5720523 1180.68221,42.77 C1182.56221,33.93 1184.84221,25.39 1190.82221,17.96 C1195.81731,11.8203954 1202.18974,6.94514485 1209.42221,3.73 C1212.36221,2.36 1215.42221,0.93 1218.78221,0.95 C1219.05221,0.95 1219.31221,0.33 1219.58221,1.42108547e-14 L1236.57221,1.42108547e-14 Z" id="Path" fill="#9BC136"></path>
                    <path d="M315.022213,438.39 L344.862213,438.39 L344.862213,445.14 L224.372213,445.14 L223.142213,444 L223.142213,438.54 L254.792213,438.54 L254.792213,104 L223.272213,104 L223.272213,97 L314.962213,97 L314.962213,284.36 C316.962213,280.72 318.632213,278.05 319.862213,275.19 C322.596276,268.911029 326.568837,263.248089 331.542213,258.54 C335.862213,254.37 339.982213,250.01 345.212213,246.89 C350.578703,243.834248 356.095691,241.050722 361.742213,238.55 C365.602213,236.76 369.822213,236.44 373.662213,234.74 C374.772213,234.24 376.382213,234.96 377.612213,234.61 C383.082213,233.03 388.672213,233.72 394.202213,233.71 C399.562213,233.71 404.902213,233.56 410.302213,234.49 C414.89907,235.359237 419.424892,236.569243 423.842213,238.11 C431.006002,240.607799 437.523719,244.669416 442.922213,250 C448.429847,255.098542 452.807343,261.295169 455.772213,268.19 C458.352144,274.202425 460.166355,280.515207 461.172213,286.98 C461.79618,292.155134 462.033504,297.369582 461.882213,302.58 C461.972213,347.68 461.942213,392.77 461.942213,438.22 L494.772213,438.22 L494.772213,445.14 L373.102213,445.14 L373.102213,438.56 L402.752213,438.56 C402.832213,437.14 402.952213,435.89 402.962213,434.63 C402.962213,383.38 403.042213,332.12 402.872213,280.87 C402.96761,274.861683 401.745634,268.905408 399.292213,263.42 C396.392213,257.2 392.532213,252.04 385.772213,249.61 C384.581061,249.082557 383.434061,248.460569 382.342213,247.75 C378.342213,247.57 374.282213,246.11 370.012213,246.63 C362.012213,247.63 354.182213,249.44 347.562213,253.86 C342.203506,257.550466 337.475976,262.082141 333.562213,267.28 C327.172213,275.52 322.272213,286.73 319.382213,295.9 C318.182213,299.7 316.602213,303.67 316.982213,307.9 C314.792213,311.17 316.422213,315.03 315.222213,318.63 C314.122213,321.93 314.982213,325.88 314.982213,329.54 L314.982213,438.39 L315.022213,438.39 Z" id="Path" fill="#6F716E"></path>
                    <path d="M1703.35221,438.38 L1733.18221,438.38 L1733.18221,445.13 L1612.53221,445.13 L1612.53221,438.44 L1643.27221,438.44 L1643.27221,244.84 L1612.70221,244.84 C1612.09221,242.47 1612.56221,240.22 1612.33221,237.84 L1702.20221,237.84 L1702.20221,285.3 L1702.82221,285.46 C1704.00221,283.3 1705.34221,281.21 1706.31221,278.97 C1708.90221,272.97 1712.60221,267.85 1716.55221,262.69 C1721.17197,256.875932 1726.6676,251.815492 1732.84221,247.69 C1739.51749,242.883246 1746.95492,239.235525 1754.84221,236.9 C1758.54221,235.9 1762.50221,235.13 1766.39221,234.46 C1775.61221,232.89 1784.80221,233.92 1793.99221,233.76 C1797.95025,233.807522 1801.87569,234.482576 1805.62221,235.76 C1809.85221,237.1 1814.15221,238.34 1818.11221,240.58 C1822.55221,243.08 1826.91221,245.58 1830.48221,249.29 C1833.65221,252.58 1837.11221,255.59 1839.69221,259.45 C1843.07221,264.51 1846.69221,273.61 1848.37221,280.33 C1849.43221,284.68 1849.83221,289.08 1850.46221,293.47 C1851.93221,303.67 1851.07221,313.85 1851.26221,324.03 C1851.45221,334.21 1851.26221,344.66 1851.26221,354.98 L1851.26221,437.84 C1851.36258,437.968595 1851.47658,438.085946 1851.60221,438.19 C1851.72713,438.283661 1851.87646,438.339223 1852.03221,438.35 L1883.09221,438.35 L1883.09221,445.11 L1762.64221,445.11 L1761.43221,443.98 L1761.43221,438.53 L1791.13221,438.53 C1791.19221,436.94 1791.30221,435.53 1791.30221,434.08 C1791.30221,382.5 1791.30221,330.916667 1791.30221,279.33 C1791.40787,271.914663 1789.27123,264.640329 1785.17221,258.46 C1781.17221,252.62 1775.66221,248.35 1767.95221,247.46 C1764.95221,247.11 1761.88221,246.41 1758.86221,246.7 C1753.88186,247.206317 1748.98408,248.331665 1744.28221,250.05 C1736.12219,253.013271 1728.95968,258.211032 1723.61221,265.05 C1718.69512,270.90696 1714.83118,277.572419 1712.19221,284.75 C1710.83221,288.65 1709.19221,292.5 1708.00221,296.48 C1706.81221,300.46 1705.35221,304.22 1705.38221,308.37 C1705.38221,310.47 1703.99221,312.23 1704.28221,314.45 C1704.7098,316.523998 1704.4207,318.681719 1703.46221,320.57 C1702.89221,321.57 1703.36221,323.18 1703.36221,324.51 L1703.35221,438.38 Z" id="Path" fill="#6F716E"></path>
                    <path d="M1003.19221,451.35 C1002.36282,451.305039 1001.5316,451.305039 1000.70221,451.35 C995.112213,452.02 989.612213,450.75 984.152213,450.13 C979.808068,449.65344 975.518881,448.766138 971.342213,447.48 C967.342213,446.24 963.422213,444.89 959.442213,443.63 C949.152213,440.36 940.052213,434.78 931.032213,429.08 C928.322213,427.37 926.102213,424.89 923.632213,422.8 C921.792213,421.24 919.782213,419.86 918.062213,418.19 C911.651689,411.85268 905.981991,404.807493 901.162213,397.19 C896.124345,389.411733 892.284751,380.920129 889.772213,372 C888.432826,367.334329 887.3413,362.601043 886.502213,357.82 C885.902213,354.24 886.052213,350.74 885.722213,347.22 C885.592213,345.82 886.082213,344.43 884.972213,343 C884.313693,341.836216 884.268835,340.423209 884.852213,339.22 C885.852213,337.67 885.752213,336.15 885.722213,334.57 C885.512213,324.94 888.082213,315.83 890.972213,306.8 C892.871878,301.094685 895.358532,295.601928 898.392213,290.41 C901.621398,284.628128 905.355967,279.143397 909.552213,274.02 C912.666914,270.229995 916.023948,266.645818 919.602213,263.29 C926.729962,256.538878 934.743528,250.78943 943.422213,246.2 C946.982213,244.37 950.542213,242.36 954.202213,240.85 C960.202213,238.39 966.132213,235.78 972.592213,234.53 C974.452213,234.17 976.682213,234.34 978.092213,233.53 C979.922213,232.44 981.712213,233.3 983.242213,232.64 C986.072213,231.41 989.112213,232.32 991.822213,231.64 C996.362213,230.4 1000.88221,230.88 1005.42221,230.79 C1008.30221,230.79 1011.13221,230.62 1014.04221,231.64 C1016.69221,232.57 1019.72221,231.21 1022.64221,232.64 C1024.34221,233.46 1026.81221,232.29 1028.64221,233.77 C1033.32221,233.6 1037.57221,235.51 1041.84221,236.88 C1047.73357,238.67045 1053.44234,241.014225 1058.89221,243.88 C1064.97784,247.099044 1070.832,250.737841 1076.41221,254.77 C1081.43345,258.613813 1086.20012,262.779221 1090.68221,267.24 C1098.91646,275.403748 1105.65519,284.948318 1110.59221,295.44 C1113.21697,300.502758 1115.30821,305.824704 1116.83221,311.32 C1117.83221,315.41 1119.13221,319.39 1119.83221,323.61 C1120.41221,327.32 1119.83221,331.2 1120.83221,334.61 C1121.79523,338.225845 1121.99614,342.002388 1121.42221,345.7 C1121.04221,348.7 1120.94221,351.77 1120.55221,354.78 C1120.16221,357.79 1119.20221,360.61 1118.80221,363.47 C1118.09626,367.621598 1117.01859,371.701345 1115.58221,375.66 C1113.28221,382.73 1109.80221,389.24 1106.10221,395.66 C1101.04222,404.42997 1094.67968,412.38062 1087.23221,419.24 C1080.87747,424.9822 1073.982,430.096029 1066.64221,434.51 C1057.46221,440.2 1047.50221,443.85 1037.35221,446.99 C1033.35221,448.23 1029.24221,449.87 1024.84221,449.38 C1021.55221,451.46 1017.70221,450.09 1014.11221,451.16 C1010.75221,452.14 1006.85221,451.35 1003.19221,451.35 Z M951.702213,370.65 C951.702213,373.97 951.142213,377.43 951.902213,380.58 C952.300962,382.597861 952.574816,384.638406 952.722213,386.69 C952.962213,388.69 953.412213,390.74 953.722213,392.77 C954.102213,395.45 953.892213,398.34 954.842213,400.77 C956.692213,405.52 957.562213,410.53 959.502213,415.3 C961.608836,420.482355 964.41124,425.35376 967.832213,429.78 C971.930145,434.935837 977.304382,438.931181 983.422213,441.37 C986.962629,443.012899 990.784658,443.963315 994.682213,444.17 C1001.51221,444.28 1008.35221,444.72 1015.27221,443.54 C1021.11884,442.592351 1026.66301,440.291129 1031.46221,436.82 C1037.18221,432.67 1041.39221,426.82 1044.72221,420.47 C1046.56215,416.74944 1048.16209,412.914936 1049.51221,408.99 C1050.913,404.864887 1051.91754,400.615684 1052.51221,396.3 C1052.92221,393.82 1053.70221,391.3 1053.72221,388.76 C1053.74929,386.043037 1054.03052,383.334567 1054.56221,380.67 C1055.21221,377.3 1054.56221,373.67 1054.75221,370.22 C1054.94221,366.77 1055.60221,363.52 1055.67221,360.16 C1055.81221,352.68 1055.87221,345.16 1055.67221,337.71 C1055.47221,330.26 1056.32221,322.71 1054.84221,315.15 C1053.74221,309.6 1054.92221,303.85 1053.97221,298.09 C1053.13221,292.94 1052.36221,287.71 1051.66221,282.5 C1051.23221,279.27 1050.79221,275.87 1049.43221,272.98 C1047.43221,268.8 1046.26221,264.29 1043.75221,260.35 C1038.95221,252.83 1033.51221,246.17 1025.07221,242.35 C1021.84221,240.88 1018.78221,239.5 1015.20221,239.63 C1013.43221,237.63 1011.14221,239.04 1009.11221,238.63 C1007.08221,238.22 1005.11221,237.95 1003.04221,237.63 C1002.71691,237.526558 1002.36752,237.526558 1002.04221,237.63 C1000.15221,238.89 998.042213,238.79 995.962213,238.54 C993.762213,238.28 991.902213,239.49 989.872213,239.54 C987.684464,239.728654 985.5495,240.314922 983.572213,241.27 C974.102213,245.06 967.832213,252.21 962.722213,260.72 C957.832213,268.85 955.962213,277.97 953.912213,286.99 C953.362739,289.628672 952.991897,292.301407 952.802213,294.99 C952.651329,297.70358 952.357589,300.407327 951.922213,303.09 C951.242213,306.61 951.582213,310.38 951.802213,314.03 C952.022213,317.68 950.922213,321.4 950.802213,325.09 C950.612213,331.4 950.622213,337.73 950.802213,344.04 C950.982213,350.35 950.142213,356.44 951.662213,362.61 C952.222213,365.2 951.702213,368 951.702213,370.65 L951.702213,370.65 Z" id="Shape" fill="#6F716E"></path>
                    <path d="M1599.40221,340.09 C1599.40221,343.17 1599.35221,345.17 1599.40221,347.16 C1599.54221,352.32 1598.32221,357.28 1597.59221,362.33 C1596.76623,367.724032 1595.31305,373.003131 1593.26221,378.06 C1591.30255,383.426686 1588.8801,388.612872 1586.02221,393.56 C1583.24221,398.09 1580.62221,402.87 1577.21221,406.77 C1572.98221,411.59 1569.73221,417.52 1563.70221,420.68 C1562.57221,421.27 1561.79221,422.51 1560.84221,423.45 C1557.54221,426.75 1550.51221,431.53 1544.91221,434.45 C1543.25221,435.31 1541.75221,436.45 1540.13221,437.4 C1532.48221,441.83 1523.93221,444.11 1515.80221,447.4 C1511.62221,447.29 1507.90221,449.96 1503.64221,449.4 C1500.56221,451.64 1496.84221,449.96 1493.40221,451.16 C1490.13221,452.29 1486.15221,451.4 1482.49221,451.4 C1478.83221,451.4 1475.15221,451.57 1471.49221,451.34 C1469.30221,451.2 1467.22221,450.28 1464.91221,450.34 C1462.5272,450.25836 1460.1559,449.943526 1457.83221,449.4 C1455.69221,449.01 1453.57221,448.45 1451.46221,447.93 C1449.20221,447.37 1446.93221,446.82 1444.70221,446.15 C1442.63221,445.53 1440.61221,444.77 1438.58221,444.05 C1433.03239,442.200704 1427.67417,439.819648 1422.58221,436.94 C1417.35174,434.059145 1412.33843,430.800494 1407.58221,427.19 C1403.33081,423.98521 1399.25805,420.55007 1395.38221,416.9 C1386.28482,407.818285 1378.86703,397.197738 1373.47221,385.53 C1370.37017,378.962914 1368.02187,372.065625 1366.47221,364.97 C1365.24258,360.010401 1364.57174,354.928789 1364.47221,349.82 C1364.47221,347.82 1363.47221,345.75 1363.61221,343.75 C1363.76221,340.55 1363.01221,337.38 1364.33221,334.09 C1365.49221,331.2 1363.65221,327.62 1365.53221,324.61 C1365.45221,317.07 1368.60221,310.26 1370.69221,303.27 C1372.03221,298.77 1374.99221,294.75 1377.17221,290.5 C1380.04099,285.075911 1383.43741,279.947788 1387.31221,275.19 C1391.40756,270.260778 1395.82738,265.61044 1400.54221,261.27 C1406.00128,256.207561 1412.04383,251.813283 1418.54221,248.18 C1421.45587,246.386773 1424.45984,244.744603 1427.54221,243.26 C1435.20124,239.575353 1443.21159,236.670723 1451.45221,234.59 C1453.33221,234.16 1455.52221,234.44 1456.95221,233.59 C1458.77221,232.47 1460.58221,233.38 1462.11221,232.7 C1464.94221,231.44 1467.99221,232.43 1470.68221,231.65 C1474.90221,230.44 1479.09221,230.79 1483.29221,230.85 C1486.29221,230.85 1489.29221,230.34 1492.44221,231.62 C1495.15221,232.73 1498.38221,231.84 1501.50221,232.53 C1505.30221,233.38 1509.24221,233.96 1513.12221,234.73 C1517.03238,235.667434 1520.86652,236.897569 1524.59221,238.41 C1530.69221,240.62 1536.37221,243.75 1542.13221,246.71 C1548.7222,250.105993 1554.88821,254.268133 1560.50221,259.11 C1564.05749,261.991419 1567.42439,265.097789 1570.58221,268.41 C1575.7907,274.190595 1580.49456,280.406642 1584.64221,286.99 C1589.86221,295.22 1592.64221,304.31 1596.39221,313.1 C1596.24221,317.1 1597.93221,320.84 1598.67221,324.68 C1599.71221,330.17 1598.89221,335.67 1599.40221,340.09 Z M1482.27221,444.36 C1485.64221,443.92 1489.79221,444.56 1494.07221,443.54 C1498.76006,442.487434 1503.26579,440.74513 1507.44221,438.37 C1514.74221,434.14 1519.52221,427.62 1523.37221,420.37 C1525.45566,416.591624 1527.13174,412.602565 1528.37221,408.47 C1529.61221,404.14 1530.37221,399.66 1531.37221,395.26 C1532.05439,392.461699 1532.39024,389.590196 1532.37221,386.71 C1532.37221,383.77 1533.17221,380.99 1533.37221,378.14 C1533.87221,370.97 1533.25221,363.8 1534.28221,356.59 C1535.12221,350.72 1534.59221,344.59 1534.41221,338.65 C1534.23221,332.71 1534.95221,326.65 1533.60221,320.57 C1532.79221,316.93 1533.20221,312.94 1533.52221,309.14 C1533.84221,305.34 1532.42221,301.81 1532.38221,298.08 C1532.34221,294.35 1532.38221,290.2 1531.31221,286.56 C1529.89221,281.63 1529.23221,276.56 1527.48221,271.7 C1523.48221,260.7 1517.73221,251.13 1507.83221,244.51 C1503.03327,241.328634 1497.55145,239.324344 1491.83221,238.66 C1488.98221,238.3 1486.04221,239.05 1483.22221,237.66 C1482.15034,237.21355 1480.93233,237.287369 1479.92221,237.86 C1478.82221,238.77 1477.78221,238.53 1476.68221,238.57 C1475.02221,238.63 1473.34221,238.46 1471.68221,238.62 C1470.12399,238.787431 1468.58841,239.12271 1467.10221,239.62 C1461.77221,241.38 1456.42221,243.16 1452.30221,247.28 C1450.30221,249.28 1448.22221,251.21 1446.30221,253.28 C1443.12221,256.79 1441.01221,261.03 1438.52221,265.01 C1438.94221,267.29 1437.03221,268.73 1436.52221,270.66 C1436.01221,272.59 1435.12221,274.77 1434.71221,276.89 C1434.15221,279.8 1433.16221,282.65 1432.71221,285.5 C1432.33221,288 1431.58221,290.5 1431.52221,293.04 C1431.43635,295.754727 1431.14552,298.459089 1430.65221,301.13 C1430.03221,304.51 1430.65221,308.13 1430.46221,311.58 C1430.27221,315.03 1429.60221,318.28 1429.54221,321.64 C1429.40221,329.64 1429.37221,337.64 1429.54221,345.58 C1429.71221,353.52 1428.96221,361.28 1430.38221,369.14 C1431.38221,374.38 1429.95221,379.83 1431.38221,385.2 C1432.15221,388.06 1431.65221,391.2 1432.38221,394.26 C1433.47221,398.8 1434.10221,403.47 1435.50221,407.95 C1438.50221,417.65 1442.91221,426.49 1450.34221,433.77 C1457.42221,440.72 1466.06221,443.31 1475.48221,444.25 C1477.44221,444.53 1479.46221,444.36 1482.27221,444.36 Z" id="Shape" fill="#6F716E"></path>
                    <path d="M1235.57221,285.59 C1236.28221,280.66 1234.97221,275.82 1234.34221,271.06 C1233.71104,265.481637 1232.48404,259.986949 1230.68221,254.67 C1228.83369,249.609152 1226.6763,244.666527 1224.22221,239.87 C1220.90609,233.443828 1216.9386,227.375308 1212.38221,221.76 C1208.19888,216.47012 1203.51006,211.600445 1198.38221,207.22 C1191.18221,201.12 1183.73221,195.28 1175.38221,190.6 C1168.62221,186.82 1161.94221,182.95 1154.98221,179.5 C1148.4838,176.286048 1141.80614,173.44804 1134.98221,171 C1128.48221,168.67 1122.21221,165.2 1115.08221,164.74 C1112.52221,162.74 1109.16221,163.04 1106.30221,161.81 C1102.88221,160.35 1099.08221,160.07 1095.54221,158.81 C1089.62544,157.412192 1083.68452,156.118659 1077.72221,154.93 C1073.12221,154.43 1068.78221,152.42 1064.08221,152.75 C1061.87221,151.36 1059.23221,152.33 1057.08221,151.62 C1054.67221,150.82 1052.16221,151.37 1050.00221,150.62 C1047.09221,149.62 1044.12221,150.39 1041.41221,149.62 C1038.70221,148.85 1035.73221,148.88 1032.73221,148.02 C1037.51221,146.27 1042.27221,144.43 1047.09221,142.79 C1053.52555,140.603333 1059.98555,138.506667 1066.47221,136.5 C1071.95221,134.82 1077.47221,133.32 1083.00221,131.79 C1087.64221,130.5 1092.30221,129.32 1096.92221,127.99 C1098.74221,127.46 1100.57221,127.83 1102.50221,126.99 C1104.86221,125.93 1108.06221,126.72 1110.43221,125.66 C1112.80221,124.6 1115.33221,124.98 1117.74221,124 C1120.45221,122.9 1123.74221,123.2 1126.74221,122.8 C1128.45221,122.58 1130.12221,122.06 1131.83221,121.8 C1133.54221,121.54 1135.11221,122.17 1136.42221,120.8 C1136.50221,120.71 1136.74221,120.8 1136.91221,120.8 C1141.60221,120.47 1146.29221,119.93 1150.99221,119.87 C1155.88221,119.8 1160.61221,118.37 1165.57221,118.73 C1170.39307,119.064998 1175.23136,119.064998 1180.05221,118.73 C1182.59221,118.56 1184.71221,119.9 1187.13221,119.83 C1189.55221,119.76 1192.26221,119.32 1194.60221,119.93 C1198.60221,120.93 1202.75221,121.1 1206.79221,121.85 C1210.00221,122.44 1213.19221,123.23 1216.35221,124.09 C1219.35221,124.89 1222.21221,126.09 1225.22221,126.75 C1228.20156,127.569666 1231.1028,128.650521 1233.89221,129.98 C1239.72235,132.532093 1245.30013,135.625654 1250.55221,139.22 C1256.91461,143.515665 1262.66964,148.648443 1267.66221,154.48 C1273.49221,161.06 1277.74221,168.74 1281.60221,176.63 C1284.51221,182.63 1287.36221,188.55 1289.97221,194.63 C1293.21732,202.287851 1296.07428,210.104439 1298.53221,218.05 C1300.35681,223.356501 1301.73821,228.805172 1302.66221,234.34 C1303.16916,238.078667 1303.87685,241.787358 1304.78221,245.45 C1305.71221,249.08 1304.68221,252.71 1305.69221,256.03 C1306.87221,259.94 1306.10221,263.81 1306.62221,267.63 C1307.09221,271.14 1305.12221,274.31 1305.62221,277.7 C1306.12221,281.09 1304.62221,284.03 1304.41221,287.22 C1304.41221,287.36 1303.87221,287.46 1303.59221,287.58 C1301.25221,285.82 1298.59221,286.87 1297.19221,286.68 C1294.55221,287.54 1292.95221,288.5 1291.34221,288.51 C1274.54221,288.62 1257.74221,288.57 1240.94221,288.57 C1238.70221,288.26 1238.02221,285.27 1235.57221,285.59 Z" id="Path" fill="#8EBB3D"></path>
                    <path d="M2086.49221,389.25 L2093.01221,390.59 C2093.85221,394.08 2091.19221,396.84 2091.01221,400.08 C2087.67221,405.08 2085.90221,410.99 2082.27221,415.95 C2077.34221,422.67 2073.90221,426.73 2067.42221,431.66 C2065.37221,433.22 2063.59221,435.18 2061.42221,436.55 C2053.82221,441.38 2044.17221,446.41 2034.35221,448.35 C2032.64221,450.06 2030.19221,448.68 2028.43221,449.7 C2026.36221,450.89 2024.20221,449.85 2022.20221,450.38 C2014.73221,452.38 2007.13221,451.38 1999.63221,451.18 C1994.84519,451.258185 1990.07023,450.676038 1985.44221,449.45 C1983.27446,448.980135 1981.07527,448.669307 1978.86221,448.52 C1972.93221,447.68 1967.28221,445.86 1961.64221,444.14 C1956.34376,442.505757 1951.20841,440.383323 1946.30221,437.8 C1940.64221,434.85 1934.99221,431.8 1930.01221,427.66 C1926.28221,424.6 1922.38221,421.73 1918.88221,418.43 C1915.7739,415.540962 1912.93548,412.37452 1910.40221,408.97 C1905.42476,402.209048 1901.15564,394.954234 1897.66221,387.32 C1895.28221,382.11 1893.95221,376.53 1892.16221,371.12 C1890.66221,366.6 1890.30221,361.91 1889.41221,357.32 C1888.41221,352.1 1888.41221,346.65 1888.33221,341.32 C1888.33221,338.48 1887.75221,335.64 1889.10221,332.68 C1890.16221,330.34 1888.88221,327.38 1890.10221,324.62 C1890.93221,322.73 1890.49221,320.31 1891.10221,318.08 C1892.39201,313.149325 1893.95781,308.295009 1895.79221,303.54 C1897.37649,299.36716 1899.20978,295.293168 1901.28221,291.34 C1904.57,285.415235 1908.37124,279.790338 1912.64221,274.53 C1915.77221,270.72 1919.27221,267.31 1922.64221,263.71 C1928.58221,257.3 1935.72221,252.37 1943.02221,247.71 C1951.46452,242.26145 1960.64465,238.051924 1970.28221,235.21 C1974.01221,234.14 1977.71221,232.68 1981.73221,232.61 C1983.60907,232.411367 1985.47239,232.100814 1987.31221,231.68 C1989.19221,231.43 1991.23221,232.25 1992.92221,230.68 C1993.19221,230.43 1993.92221,230.68 1994.39221,230.68 C2001.96221,229.97 2009.39221,231.68 2016.96221,231.68 C2020.66221,233.51 2024.86221,233.19 2028.76221,234.51 C2032.39221,235.75 2036.45221,236.15 2039.90221,237.78 C2047.46221,241.33 2055.20221,244.53 2061.90221,249.78 C2067.43221,254.06 2072.15221,259.09 2076.83221,264.11 C2079.83311,267.527617 2082.42094,271.286856 2084.54221,275.31 C2086.54221,278.83 2088.24221,282.48 2089.91221,286.1 C2091.72257,290.196162 2093.10329,294.469013 2094.03221,298.85 C2095.9623,306.918345 2096.59689,315.242314 2095.91221,323.51 L1954.23221,323.51 L1954.23221,328 C1954.23221,334.83 1954.51221,341.66 1954.17221,348.47 C1953.64221,358.86 1955.60221,369.13 1955.23221,379.47 C1956.90221,384.58 1955.79221,390.23 1958.23221,395.2 C1958.35221,401.78 1961.23221,407.61 1963.85221,413.33 C1967.51641,421.852824 1973.38412,429.246145 1980.85221,434.75 C1984.84382,437.737193 1989.2817,440.075943 1994.00221,441.68 C1995.71198,442.393538 1997.48697,442.939431 1999.30221,443.31 C2003.47221,443.84 2007.60221,444.77 2011.87221,444.42 C2015.02221,444.16 2018.21221,444.51 2021.36221,444.34 C2028.60733,444.093397 2035.74987,442.552449 2042.45221,439.79 C2048.45684,437.14646 2054.12101,433.788921 2059.32221,429.79 C2066.53526,424.510716 2072.69208,417.923087 2077.47221,410.37 C2081.70613,403.91985 2084.76027,396.768701 2086.49221,389.25 L2086.49221,389.25 Z M1954.12221,316.37 L2031.19221,316.37 C2031.19221,315.37 2031.19221,314.58 2031.19221,313.77 C2030.74221,299.77 2032.19221,285.77 2030.19221,271.77 C2029.91221,269.83 2030.67221,267.42 2029.75221,265.99 C2028.56221,264.12 2029.89221,262.2 2028.62221,260.4 C2027.62221,258.98 2027.21221,257.03 2026.46221,255.33 C2023.19221,247.97 2022.29221,246.49 2016.54221,242.58 C2013.15221,240.27 2009.48221,238.52 2005.18221,238.64 C2004.06863,238.710124 2002.95371,238.525445 2001.92221,238.1 C2000.60221,237.54 1998.84221,237.98 1997.27221,238.1 C1996.35221,238.17 1995.44221,238.6 1994.52221,238.64 C1991.79405,238.651328 1989.07504,238.95642 1986.41221,239.55 C1982.67436,240.58113 1979.15187,242.274634 1976.01221,244.55 C1972.94828,246.573225 1970.33951,249.212646 1968.35221,252.3 C1966.07221,256.1 1962.48221,259.3 1962.15221,264.19 C1958.15221,270.63 1957.39221,278.07 1956.43221,285.19 C1955.63221,291.09 1954.43221,297.13 1955.19221,303.19 C1955.41945,303.997655 1955.41945,304.852345 1955.19221,305.66 C1953.20221,309.09 1954.80221,312.72 1954.12221,316.37 Z" id="Shape" fill="#6F716E"></path>
                    <path d="M752.942213,438.49 L790.682213,438.49 L790.682213,445.18 L663.152213,445.18 L662.022213,443.91 L662.022213,438.45 L693.622213,438.45 L693.622213,244.7 L662.022213,244.7 L662.022213,238.16 C666.022213,237.4 734.912213,237.16 751.802213,237.84 L751.802213,278.76 C755.282213,273.01 758.312213,267.48 761.862213,262.31 C764.358677,258.895958 767.149339,255.707109 770.202213,252.78 C774.412213,248.51 778.532213,244.22 783.742213,240.95 C787.812213,238.4 792.182213,237.11 796.572213,235.69 C805.442213,232.83 814.692213,233.05 823.702213,233.86 C832.972213,234.7 841.652213,238 848.562213,244.86 C851.662213,247.96 854.772213,251.11 856.562213,255.06 C858.27814,258.741311 859.42134,262.66326 859.952213,266.69 C860.378332,269.703848 860.645369,272.738053 860.752213,275.78 C860.677522,281.14473 859.514004,286.438399 857.332213,291.34 C854.332213,298.72 848.392213,302.75 840.602213,304.64 C835.532213,305.87 830.492213,305.71 825.512213,305.38 C821.310649,305.042763 817.191031,304.029742 813.312213,302.38 C809.222213,300.68 805.392213,298.14 803.502213,293.73 C802.556169,291.947954 801.952418,290.004418 801.722213,288 C801.672213,286.63 800.472213,285 800.902213,284 C802.012213,281.3 800.902213,278.2 801.982213,276 C803.292213,273.38 801.562213,270.39 803.732213,268.21 C803.372213,265.44 804.662213,262.84 804.672213,260.16 C804.60965,257.966421 804.141776,255.80335 803.292213,253.78 C802.062213,250.58 799.722213,248.61 796.042213,248.68 C793.882213,248.73 791.712213,248.68 789.642213,248.68 C788.342213,249.37 787.132213,250.06 785.882213,250.68 C780.15389,253.403394 775.143324,257.431026 771.252213,262.44 C767.19527,267.62773 763.673981,273.212876 760.742213,279.11 C758.312213,283.96 756.882213,289.17 754.942213,294.18 C753.822213,297.07 754.322213,300.54 753.762213,303.69 C751.762213,314.69 753.082213,325.69 752.852213,336.69 C752.622213,347.69 752.802213,358.98 752.802213,370.13 L752.802213,437 C752.802213,437.33 752.862213,437.65 752.942213,438.49 Z" id="Path" fill="#6F716E"></path>
                    <path d="M199.942213,297 C197.942213,300.26 196.842213,303.74 193.992213,306.3 C190.362213,309.55 186.072213,311.25 181.572213,312.57 C174.992213,314.5 168.172213,313.81 161.522213,313.4 C157.459059,313.282096 153.496257,312.110485 150.022213,310 C149.21925,309.664501 148.36918,309.455357 147.502213,309.38 C144.792213,306.78 141.652213,304.19 140.362213,300.13 C139.652213,298.57 140.742213,296.74 139.312213,295.06 C138.652213,294.28 138.592213,291.9 139.232213,291.3 C141.152213,289.53 139.412213,287.23 140.692213,285.3 C141.742213,283.73 141.692213,281.43 142.122213,279.44 C142.552213,277.45 142.992213,275.44 143.302213,273.39 C143.658766,270.940513 144.310159,268.543118 145.242213,266.25 C146.242213,263.88 145.242213,261.09 147.122213,259.04 C146.522213,256.8 145.892213,254.55 145.322213,252.3 C145.178907,251.539606 145.078747,250.771712 145.022213,250 C142.472213,248.08 140.412213,245.2 137.362213,243.12 C135.330148,241.688111 133.067256,240.615858 130.672213,239.95 C128.122213,239.31 125.502213,238.2 122.672213,238.63 C121.312213,238.83 119.772213,239.12 118.522213,237.75 C117.776211,237.34819 116.878215,237.34819 116.132213,237.75 C114.032213,239.19 111.732213,238.66 109.512213,238.65 C106.199008,238.730721 102.936588,239.48254 99.9222134,240.86 C95.5222134,242.78 90.9822134,244.71 87.5922134,248.61 C84.4122134,252.26 80.9122134,255.61 78.4822134,259.85 C74.8622134,266.18 72.9422134,273.21 70.3922134,279.97 C69.6722134,281.86 70.1122134,283.97 69.3922134,286.02 C68.3922134,288.64 68.9122134,291.77 68.1522134,294.51 C67.0822134,298.36 67.9622134,302.39 67.0722134,306.06 C65.8222134,311.14 66.2322134,316.15 66.3222134,321.16 C66.4622134,328.23 64.1622134,335.21 65.3222134,342.16 C66.7622134,350.85 65.5522134,359.58 66.4022134,368.21 C66.8222134,372.41 66.5922134,376.7 67.4022134,380.76 C68.2522134,385.04 68.6522134,389.42 69.8322134,393.68 C71.0122134,397.94 71.7622134,402.19 73.2922134,406.25 C75.8796371,413.260871 79.4812954,419.854365 83.9822134,425.82 C87.065533,429.967373 90.8006191,433.587638 95.0422134,436.54 C98.9107782,439.097013 103.14124,441.058868 107.592213,442.36 C108.427983,442.760747 109.293989,443.095112 110.182213,443.36 C113.189325,443.851783 116.220151,444.185575 119.262213,444.36 C124.088978,444.610013 128.925449,444.610013 133.752213,444.36 C141.716787,443.877117 149.519296,441.89935 156.752213,438.53 C165.502213,434.39 173.402213,429.21 179.882213,422.09 C183.530366,418.323907 186.667273,414.094294 189.212213,409.51 C190.772213,406.51 192.652213,403.66 193.742213,400.4 C194.832213,397.14 196.642213,394.26 197.292213,390.87 C197.372213,390.47 197.962213,390.16 198.492213,389.63 C201.112213,388.92 203.212213,390.18 205.132213,391.98 C202.733189,399.314246 199.771039,406.452158 196.272213,413.33 C194.902519,415.79204 193.326896,418.133731 191.562213,420.33 C186.092213,427.91 181.332213,432.48 174.082213,436.88 C165.622213,442.02 156.902213,446.78 146.902213,448.42 C145.032213,450.35 142.352213,448.59 140.452213,449.72 C138.382213,450.96 136.242213,449.92 134.252213,450.45 C127.252213,452.34 120.192213,451.14 113.162213,451.35 C110.612531,451.263838 108.075708,450.949246 105.582213,450.41 C103.222213,450.06 100.912213,450.64 98.4122134,449.64 C96.4122134,448.84 93.7722134,448.88 91.4122134,448.5 C85.5994661,447.41243 79.871622,445.911963 74.2722134,444.01 C64.6622134,441.01 55.7022134,436.49 46.9322134,431.61 C43.756495,429.887023 40.7440839,427.878749 37.9322134,425.61 C33.8542135,422.289491 29.9616835,418.747489 26.2722134,415 C21.5022134,410.1 17.7122134,404.43 14.0722134,398.63 C11.0722134,393.86 9.20221339,388.63 6.82221339,383.63 C5.1680732,379.7772 3.94724648,375.752496 3.18221339,371.63 C2.18221339,367.13 1.61221339,362.55 0.902213391,358.02 C0.192213391,353.49 0.362213391,349.27 0.192213391,344.9 C-0.0640711303,340.570456 -0.0640711303,336.229544 0.192213391,331.9 C0.492035382,327.965824 1.16165784,324.068621 2.19221339,320.26 C3.45221339,315.66 4.96221339,311.11 6.55221339,306.6 C8.47221339,301.2 11.3422134,296.26 13.9322134,291.18 C16.781196,285.933152 20.0767027,280.941379 23.7822134,276.26 C27.8722134,270.82 32.9122134,266.34 37.6822134,261.59 C42.8722134,256.42 48.9322134,252.36 55.1722134,248.47 C58.1722134,246.58 61.5222134,245.14 64.4622134,242.98 C67.4244758,241.026643 70.6930437,239.583335 74.1322134,238.71 C77.3922134,237.71 80.4122134,236.18 83.8122134,235.43 C87.1738152,234.852994 90.4770029,233.97616 93.6822134,232.81 C95.6822134,231.98 98.3922134,231.91 100.682213,231.81 C109.192213,231.33 117.682213,230 126.242213,230.69 C128.612213,230.88 130.962213,231.37 133.332213,231.69 C135.532213,231.95 137.692213,231.6 139.972213,232.55 C141.892213,233.34 144.312213,232.77 146.532213,233.6 C148.752213,234.43 151.432213,233.9 153.532213,234.87 C155.662274,235.784012 157.854432,236.545921 160.092213,237.15 C167.640677,239.528294 174.758032,243.103854 181.172213,247.74 C183.702213,249.54 185.712213,252.04 188.032213,254.14 C193.390012,259.10311 197.299165,265.428265 199.342213,272.44 C200.142213,274.98 201.092213,277.49 201.052213,280.22 C200.911689,282.217532 200.911689,284.222468 201.052213,286.22 C201.572213,290 199.882213,293.47 199.942213,297 Z" id="Path" fill="#6F716E"></path>
                    <path d="M603.862213,438.34 L636.672213,438.34 L636.672213,444.88 C632.402213,445.62 531.312213,445.88 513.092213,445.2 L513.092213,438.52 L544.742213,438.52 L544.742213,244.66 L513.082213,244.66 L513.082213,237.9 L603.862213,237.9 L603.862213,438.34 Z" id="Path" fill="#6F716E"></path>
                    <path d="M1231.57221,474.32 C1231.45221,476.6 1231.95221,479.16 1231.05221,481.08 C1230.15221,483 1230.91221,485.08 1229.79221,487.08 C1228.67221,489.08 1229.42221,492 1228.72221,494.57 C1227.80221,497.94 1227.79221,501.57 1227.62221,505.1 C1227.52221,507.19 1226.21221,508.96 1226.50221,511.18 C1226.77221,513.18 1227.05221,515.41 1225.58221,517.26 C1225.50221,517.36 1225.58221,517.58 1225.58221,517.75 C1225.25221,523.43 1224.97221,529.12 1224.58221,534.75 C1224.39221,537.45 1223.81221,540.12 1223.64221,542.82 C1223.47221,545.52 1224.26221,548.37 1223.46221,550.76 C1222.14221,554.66 1222.59221,558.52 1222.69221,562.37 C1222.83221,568.27 1221.17221,574 1221.53221,579.93 C1221.89221,585.86 1222.32221,592.01 1221.45221,597.87 C1219.88221,608.4 1220.92221,618.87 1220.66221,629.42 C1220.40221,639.97 1219.76221,650.8 1220.85221,661.33 C1221.94221,671.86 1220.92221,682.05 1221.77221,692.57 C1218.34221,693.88 1215.67221,691.93 1213.56221,690.23 C1206.34221,684.42 1201.84221,676.71 1198.47221,668.09 C1196.78221,663.75 1195.47221,659.33 1194.17221,654.91 C1193.17221,651.34 1192.24221,647.68 1191.49221,644 C1190.57221,639.57 1190.30221,635 1188.77221,630.68 C1188.68673,630.376774 1188.6364,630.064724 1188.62221,629.75 C1188.29221,625.75 1188.01221,621.75 1187.62221,617.69 C1187.41221,615.69 1186.84221,613.69 1186.68221,611.61 C1186.52221,609.53 1187.27221,607.03 1186.50221,605.18 C1185.23221,602.1 1185.83221,599.09 1185.67221,596.05 C1185.26221,588.37 1184.85221,580.69 1184.67221,573.05 C1184.49221,565.41 1184.67221,557.75 1184.67221,550.05 C1184.67221,545.66 1186.11221,541.44 1185.76221,536.99 C1185.42221,532.69 1185.02221,528.21 1185.86221,524.05 C1186.86221,519.31 1185.99221,514.57 1186.86221,509.98 C1187.73221,505.39 1187.04221,500.81 1187.95221,496.44 C1188.60221,493.34 1188.41221,490.35 1188.76221,487.33 C1188.95221,485.62 1189.52221,483.96 1189.70221,482.25 C1189.88221,480.54 1189.70221,478.93 1189.70221,477.25 C1190.03221,476.92 1190.37221,476.59 1190.70221,476.25 L1190.70221,475.25 C1192.01547,475.71849 1193.37743,476.037176 1194.76221,476.2 C1205.98221,476.28 1217.21221,476.2 1228.16221,476.2 C1229.26221,475.21 1229.93221,473.87 1231.57221,474.32 Z" id="Path" fill="#7EBB02"></path>
                    <path d="M1235.57221,285.59 C1238.01221,285.27 1238.70221,288.26 1240.89221,288.59 C1257.69221,288.59 1274.49221,288.64 1291.29221,288.53 C1292.90221,288.53 1294.50221,287.53 1297.14221,286.7 C1298.51221,286.89 1301.20221,285.84 1303.54221,287.6 C1303.69805,291.097029 1303.12245,294.5881 1301.85221,297.85 C1301.55278,299.049233 1301.42484,300.284857 1301.47221,301.52 C1300.34221,304.2 1298.83221,306.27 1298.67221,308.44 C1298.38221,312.49 1296.41221,315.88 1295.01221,319.44 C1292.47221,325.85 1289.44221,332.09 1286.27221,338.22 C1283.99221,342.62 1281.27221,346.78 1278.56221,350.97 C1275.63221,355.58 1272.65221,360.17 1269.56221,364.65 C1267.20221,368.04 1264.56221,371.25 1262.06221,374.51 C1258.44221,379.16 1255.15221,384.13 1251.06221,388.32 C1246.52221,392.97 1243.20221,398.8 1237.62221,402.44 C1235.29112,402.904359 1232.93314,403.221652 1230.56221,403.39 C1222.25221,403.51 1213.95221,403.45 1205.64221,403.39 C1204.40802,403.268268 1203.19276,402.999702 1202.02221,402.59 C1199.63221,402.01 1197.02221,400.14 1194.38221,402.34 C1194.04209,402.593894 1193.58552,402.627268 1193.2121,402.425532 C1192.83867,402.223797 1192.61631,401.823642 1192.64221,401.4 C1192.88221,398.59 1194.90221,396.6 1196.28221,394.46 C1199.90221,388.83 1203.28221,383.08 1206.78221,377.37 C1209.54221,372.85 1211.12221,367.69 1214.63221,363.63 C1216.98221,356.29 1221.28221,349.81 1223.78221,342.48 C1225.46221,337.55 1227.20221,332.6 1229.02221,327.71 C1230.11221,324.78 1230.45221,321.71 1231.44221,318.71 C1232.26221,316.27 1232.67221,313.61 1233.44221,311.06 C1234.21221,308.51 1233.96221,305.71 1234.37221,303.06 C1234.78221,300.41 1235.69221,297.44 1235.63221,294.53 C1235.57221,291.62 1235.57221,288.58 1235.57221,285.59 Z" id="Path" fill="#83B930"></path>
                    <path d="M1370.51221,70.9 C1367.02221,75.72 1363.04221,80.14 1359.25221,84.72 C1356.33221,88.24 1353.74221,92.05 1351.10221,95.8 C1348.21221,99.91 1345.25221,103.98 1342.67221,108.28 C1340.28221,112.28 1337.87221,116.28 1335.36221,120.18 C1331.79221,125.68 1329.91221,132.1 1325.67221,137.18 C1323.29221,144.37 1318.96221,150.68 1316.50221,157.84 C1315.70221,160.16 1314.50221,162.34 1313.50221,164.59 C1309.92725,172.688082 1306.79267,180.973505 1304.11221,189.41 C1302.83221,187.11 1301.58221,185.49 1300.99221,183.66 C1299.08221,177.74 1295.70221,172.54 1293.13221,166.95 C1289.67457,159.350345 1285.04857,152.338801 1279.42221,146.17 C1277.03221,143.55 1274.89221,140.71 1272.56221,137.87 C1274.16221,134.41 1276.43221,130.93 1277.36221,127.12 C1278.36221,123.12 1280.62221,119.79 1282.06221,116.05 C1284.48221,109.76 1287.99221,103.88 1291.06221,97.83 C1295.29221,89.52 1299.67221,81.31 1305.15221,73.72 C1306.29221,72.14 1306.22221,69.72 1308.51221,68.92 C1308.51221,69.42 1308.51221,69.92 1308.51221,70.41 C1310.24,71.5355185 1312.28399,72.0754408 1314.34221,71.95 C1317.64221,71.82 1320.95221,71.95 1324.26221,71.95 C1332.03221,71.95 1339.81221,72.05 1347.58221,71.95 C1355.35221,71.85 1362.93221,72.65 1370.51221,70.9 Z" id="Path" fill="#95BE3C"></path>
                    <path d="M1370.51221,70.9 C1362.93221,72.65 1355.24221,71.74 1347.60221,71.9 C1339.96221,72.06 1332.05221,71.9 1324.28221,71.9 C1320.97221,71.9 1317.66221,71.8 1314.36221,71.9 C1312.30399,72.0254408 1310.26,71.4855185 1308.53221,70.36 C1308.53221,69.86 1308.53221,69.36 1308.53221,68.87 C1311.11221,63.59 1314.75221,59.06 1318.36221,54.46 C1321.98724,49.7023894 1325.88021,45.1550309 1330.02221,40.84 C1332.69221,38.15 1334.57221,34.84 1338.02221,32.7 C1341.29221,30.7 1343.74221,27.46 1346.78221,24.97 C1353.24237,19.7092781 1360.25721,15.1690821 1367.70221,11.43 C1373.53963,8.56365467 1379.68643,6.37603649 1386.02221,4.91 C1389.40221,4.08 1392.82221,3.59 1396.22221,3.1 C1399.62221,2.61 1403.22221,3.1 1406.69221,2.98 C1416.54221,2.67 1425.69221,5.33 1435.14221,9.61 C1429.08221,10.61 1424.82221,13.86 1420.81221,17.28 C1415.44221,21.86 1410.31221,26.74 1405.31221,31.72 C1400.55221,36.47 1395.92221,41.37 1391.56221,46.49 C1387.20221,51.61 1383.06221,56.69 1378.49221,61.49 C1375.87221,64.26 1373.74221,67.49 1371.36221,70.49 C1371.18221,70.74 1370.79221,70.78 1370.51221,70.9 Z" id="Path" fill="#9CC135"></path>
                    <path d="M573.582213,99.86 C576.212213,99.86 578.062213,99.73 579.882213,99.86 C581.44527,99.9748651 582.984028,100.311574 584.452213,100.86 C588.032213,102.32 591.702213,103.68 594.722213,106.2 C596.122213,107.37 597.262213,108.85 598.632213,110.05 C602.054794,112.963982 604.73233,116.652879 606.442213,120.81 C607.10845,122.562776 607.636724,124.364927 608.022213,126.2 C610.933149,137.361257 607.805174,149.232396 599.772213,157.51 C596.871578,160.523457 593.554622,163.106305 589.922213,165.18 C587.872202,166.248831 585.708645,167.084065 583.472213,167.67 C575.102213,170.1 563.682213,168.59 556.542213,163.67 C549.402213,158.75 543.792213,152.24 541.432213,143.67 C540.258372,139.823776 539.734512,135.808647 539.882213,131.79 C540.119121,128.667246 540.841113,125.600468 542.022213,122.7 C545.542213,113.7 551.432213,106.7 560.562213,102.7 C565.022213,100.73 569.452213,99.2 573.582213,99.86 Z" id="Path" fill="#717370"></path>
                    <path d="M953.702213,625.1 C960.932213,620.04 968.232213,615.1 975.372213,609.89 C981.162213,605.69 986.742213,601.18 992.472213,596.89 C997.532213,593.07 1002.97221,589.69 1007.68221,585.49 C1013.35221,580.49 1019.68221,576.31 1025.32221,571.19 C1030.41221,566.56 1036.20221,562.73 1041.39221,558.13 C1045.61221,554.39 1050.02221,550.85 1054.33221,547.19 C1059.53221,542.77 1064.62221,538.25 1069.76221,533.77 C1077.28221,527.22 1084.43221,520.25 1091.95221,513.77 C1099.47221,507.29 1106.40221,499.77 1113.64221,492.77 C1120.88221,485.77 1128.25221,478.64 1135.12221,471.17 C1138.12221,467.94 1140.95221,464.58 1144.06221,461.46 C1144.54377,461.054981 1145.06278,460.6967 1145.61221,460.39 L1145.61221,462.63 L1150.27221,461.43 C1150.54221,462.19 1150.74221,462.76 1150.95221,463.33 C1158.56221,463.54 1166.09221,463.15 1173.60221,463.56 L1173.60221,465.38 C1171.74221,467.82 1169.92221,470.29 1166.96221,471.55 C1166.53221,471.73 1166.25221,472.25 1165.88221,472.55 C1161.78221,476.32 1157.79221,480.22 1153.55221,483.82 C1148.61221,488.02 1143.67221,492.22 1138.78221,496.47 C1134.65221,500.07 1130.44221,503.59 1126.23221,507.12 C1121.83221,510.8 1117.17221,514.18 1112.67221,517.76 C1110.39221,519.56 1108.22221,521.5 1106.01221,523.39 C1101.39221,527.35 1096.63221,531.13 1091.73221,534.73 C1087.73221,537.73 1084.04221,541.08 1080.15221,544.21 C1077.15221,546.6 1074.23221,549.09 1071.04221,551.21 C1067.17221,553.74 1063.78221,556.85 1060.04221,559.48 C1054.70221,563.2 1049.62221,567.27 1044.33221,571.07 C1040.25221,574 1036.03221,576.74 1031.87221,579.56 C1021.47221,586.62 1011.19221,593.86 1000.63221,600.68 C993.202213,605.48 985.402213,609.68 977.762213,614.18 C970.952213,618.18 964.122213,622.12 956.992213,625.54 C955.952543,625.931841 954.85312,626.141577 953.742213,626.16 L953.702213,625.1 Z" id="Path" fill="#7FBB06"></path>
                    <path d="M1173.60221,465.33 L1173.60221,463.51 C1166.09221,463.1 1158.60221,463.51 1150.95221,463.28 C1150.74221,462.71 1150.54221,462.14 1150.27221,461.38 L1145.61221,462.58 L1145.61221,460.34 C1148.01084,456.89667 1150.71151,453.673926 1153.68221,450.71 C1154.9793,449.310442 1156.16617,447.812641 1157.23221,446.23 C1158.39221,444.71 1159.87221,443.56 1160.90221,441.8 C1162.33221,439.36 1164.59221,437.35 1166.49221,435.17 C1173.11221,427.59 1178.63221,419.17 1185.01221,411.41 C1187.28221,408.65 1189.01221,405.41 1191.01221,402.49 C1191.34221,402.01 1192.01221,401.77 1192.54221,401.42 C1192.51631,401.843642 1192.73867,402.243797 1193.1121,402.445532 C1193.48552,402.647268 1193.94209,402.613894 1194.28221,402.36 C1196.92221,400.16 1199.53221,402.03 1201.92221,402.61 C1203.09276,403.019702 1204.30802,403.288268 1205.54221,403.41 C1213.85221,403.41 1222.15221,403.49 1230.46221,403.41 C1232.83314,403.241652 1235.19112,402.924359 1237.52221,402.46 C1237.88221,403.83 1236.94221,404.55 1236.11221,405.38 C1231.39221,410.046667 1226.67888,414.75 1221.97221,419.49 C1215.14221,426.31 1208.38221,433.2 1201.47221,439.94 C1194.56221,446.68 1187.47221,453.42 1180.32221,460.05 C1178.28221,462 1175.87221,463.56 1173.60221,465.33 Z" id="Path" fill="#80B91C"></path>
                    <path d="M1231.57221,474.32 C1229.93221,473.87 1229.26221,475.21 1228.05221,476.32 C1217.05221,476.32 1205.87221,476.32 1194.65221,476.32 C1193.26743,476.157176 1191.90547,475.83849 1190.59221,475.37 L1190.59221,471.24 L1212.59221,450.4 L1215.59221,450.4 L1215.59221,447.4 C1217.56448,447.279785 1219.54279,447.299835 1221.51221,447.46 C1222.97221,447.68 1224.32221,448.6 1225.77221,449.04 C1226.67221,449.31 1227.91221,449.71 1228.55221,449.32 C1231.14221,447.72 1233.91221,448.67 1236.55221,448.39 C1236.15221,450.56 1236.90221,452.72 1235.72221,455.02 C1234.81221,456.81 1235.07221,459.33 1234.72221,461.51 C1234.09221,465.71 1232.72221,469.76 1232.35221,474 C1232.38221,474.1 1231.86221,474.2 1231.57221,474.32 Z" id="Path" fill="#7FB911"></path>
                    <path d="M2106.19221,160.88 L2112.31221,160.88 C2112.70987,161.865321 2112.98201,162.896751 2113.12221,163.95 C2113.18221,173.08 2113.12221,182.22 2113.12221,191.22 L2111.77221,192.57 L2107.23221,192.57 L2107.23221,171 L2106.48221,170.85 L2098.02221,192.51 L2094.02221,192.51 L2085.36221,170.79 L2085.36221,191.08 L2083.72221,192.6 L2079.30221,192.6 L2079.30221,162.14 L2080.50221,160.94 L2086.09221,160.94 C2089.99221,167.94 2092.49221,175.94 2095.89221,184.08 C2096.32442,183.575513 2096.68452,183.013486 2096.96221,182.41 C2098.66221,176.64 2101.62221,171.35 2103.25221,165.53 C2103.73221,163.79 2105.24221,162.33 2106.19221,160.88 Z" id="Path" fill="#6F716E"></path>
                    <path d="M1236.57221,448.35 C1233.90221,448.63 1231.13221,447.68 1228.57221,449.28 C1227.93221,449.67 1226.69221,449.28 1225.79221,449 C1224.34221,448.56 1222.99221,447.64 1221.53221,447.42 C1219.56279,447.259835 1217.58448,447.239785 1215.61221,447.36 C1218.79221,444.01 1221.97221,440.68 1225.14221,437.36 C1230.80221,431.36 1236.44221,425.36 1242.14221,419.36 C1243.77221,422.65 1240.78221,425.62 1241.60221,428.79 C1239.47221,430.57 1241.01221,433.29 1239.79221,435.55 C1238.57221,437.81 1239.05221,440.85 1238.56221,443.55 C1238.21221,445.19 1238.10221,447.08 1236.57221,448.35 Z" id="Path" fill="#80B91C"></path>
                    <path d="M2069.33221,192.64 L2064.20221,192.64 L2064.20221,165.8 L2057.37221,165.8 L2057.37221,162 C2063.70221,161.57 2070.25221,162 2076.98221,161.79 L2076.98221,165.6 L2070.88221,165.6 L2069.33221,167.16 L2069.33221,192.64 Z" id="Path" fill="#6F716E"></path>
                    <path d="M953.702213,625.1 L953.702213,626.1 C952.172213,627.82 952.172213,627.82 949.702213,627.88 C950.572213,626.07 952.462213,626 953.702213,625.1 Z" id="Path" fill="#95BE3C"></path>
                    <polygon id="Path" fill="#80B91C" points="1215.58221 447.36 1215.58221 450.36 1212.58221 450.36"></polygon>
                    <path d="M2114.18221,588.36 C2111.29221,582.57 2106.42221,579.82 2100.18221,579.17 C2098.33221,577.08 2095.49221,577.17 2093.18221,576.35 C2090.85159,575.701954 2088.76428,574.37999 2087.18221,572.55 L2087.18221,570.18 L2092.34221,568.18 C2096.14221,570.35 2096.14221,570.35 2097.59221,573 L2112.87221,573 C2114.01221,569.46 2112.67221,566.46 2111.06221,563.78 C2109.89295,561.987385 2108.43292,560.402311 2106.74221,559.09 C2103.85233,556.578012 2100.15124,555.196319 2096.32221,555.2 C2093.48221,555.2 2090.65221,555.15 2087.82221,555.2 C2086.88974,555.303579 2085.96904,555.494415 2085.07221,555.77 C2080.70221,556.77 2077.35221,559.23 2074.32221,562.44 C2072.20221,564.68 2070.77221,566.98 2071.19221,570.15 C2070.07221,571.49 2069.52221,573.5 2070.34221,574.57 C2071.68221,576.31 2070.75221,578.04 2071.34221,579.96 L2074.14221,582.13 C2075.57072,584.624514 2077.92364,586.456557 2080.69221,587.23 C2082.57221,587.81 2084.30221,588.91 2086.16221,589.61 C2089.46221,590.85 2092.80221,591.95 2096.16221,593.12 C2096.81221,593.99 2097.45221,594.87 2098.16221,595.84 L2098.16221,599.11 C2094.50221,601.11 2094.51221,601.11 2089.63221,600.11 C2089.14684,600.0599 2088.65759,600.0599 2088.17221,600.11 C2087.76221,598.81 2087.36221,597.5 2086.93221,596.11 L2069.83221,596.11 C2070.76221,597.98 2069.16221,599.88 2071.18221,601.11 C2071.18221,604.24 2073.99221,605.89 2075.04221,608.47 C2079.40221,611.18 2083.60221,614.28 2089.14221,614.11 C2091.14221,614.04 2093.14221,613.99 2095.14221,614.11 C2103.07221,614.6 2108.40221,610.11 2113.03221,604.57 C2114.115,603.361192 2114.54376,601.702063 2114.18221,600.12 L2115.18221,600.12 L2115.18221,589.12 C2114.82221,588.89 2114.35221,588.7 2114.18221,588.36 Z" id="Path" fill="url(#linearGradient-1)"></path>
                    <path d="M1923.18221,568.81 C1922.18221,567.05 1921.24221,565.44 1920.36221,563.81 C1917.41221,558.27 1912.83221,555.27 1906.52221,555.24 C1902.16221,555.24 1897.73221,554.57 1893.61221,556.6 C1891.76221,557.45 1891.10221,559.96 1888.76221,560.26 C1888.22221,558.78 1887.76221,557.49 1887.29221,556.26 C1882.73221,556.26 1878.58221,556.2 1874.44221,556.26 C1873.35597,556.413286 1872.29183,556.695268 1871.27221,557.1 C1871.27221,562.64 1871.27221,567.77 1871.27221,572.9 C1871.27221,573.34 1871.90221,573.76 1872.27221,574.19 L1872.27221,611.74 C1877.70221,613.74 1882.97221,612.99 1887.27221,613.13 C1889.65221,609.98 1889.34221,607.05 1889.20221,604.19 C1888.98974,602.501423 1888.65554,600.830406 1888.20221,599.19 L1888.20221,591.19 C1889.54221,591.19 1889.20221,590.19 1889.20221,589.44 C1889.20221,584.7 1889.20221,579.95 1889.20221,575.21 C1892.70221,571.72 1896.83221,570.21 1901.95221,571.49 C1904.44221,573.64 1906.80221,576.18 1906.19221,580.2 C1906.19221,583.45 1906.19221,586.7 1906.19221,589.94 C1906.19221,590.37 1906.81221,590.77 1907.19221,591.19 L1907.19221,599.19 C1905.62181,603.656811 1905.73919,608.543729 1907.52221,612.93 L1923.02221,612.93 C1924.70721,608.519122 1924.79214,603.657034 1923.26221,599.19 L1923.26221,591.19 C1923.60221,590.77 1924.26221,590.37 1924.26221,589.94 C1924.34221,586.7 1924.26221,583.45 1924.26221,580.2 C1924.93221,576.22 1923.12221,572.51 1923.18221,568.81 Z" id="Path" fill="url(#linearGradient-2)"></path>
                    <path d="M1528.39221,577.19 C1528.21221,574.34 1527.67221,571.5 1527.27221,568.57 C1525.77221,567.57 1526.35221,565.05 1524.43221,564.19 C1524.68221,561.53 1522.20221,560.75 1520.89221,559.19 C1518.50221,556.38 1515.11221,555.34 1511.62221,555.26 C1507.11221,555.16 1502.51221,554.49 1498.01221,556.43 L1492.94221,560.25 C1492.42221,558.79 1491.94221,557.49 1491.48221,556.19 C1488.61221,556.19 1486.14221,556.19 1483.67221,556.19 C1481.20221,556.19 1478.82221,555.94 1476.46221,556.38 L1476.46221,599.12 C1476.17221,599.23 1475.65221,599.34 1475.65221,599.46 C1475.60221,603.66 1475.65221,607.87 1475.65221,611.83 C1478.65221,612.29 1481.27221,612.83 1483.94221,613.05 C1486.61221,613.27 1489.47221,613.05 1492.49221,613.05 L1492.49221,599.05 C1492.82221,598.64 1493.43221,598.23 1493.49221,597.81 C1493.58221,595.23 1493.49221,592.64 1493.49221,590.06 L1493.49221,578.06 C1493.60221,574.81 1496.02221,573.06 1498.02221,571.06 L1506.02221,571.06 C1506.49221,571.52 1506.93221,572.06 1507.43221,572.45 C1509.71847,574.289463 1510.89726,577.175974 1510.55221,580.09 C1510.38221,582.09 1510.55221,584.09 1510.55221,586.04 C1510.55221,589.28 1510.55221,592.53 1510.55221,595.78 C1510.55221,596.2 1511.18221,596.61 1511.55221,597.02 L1511.55221,613.02 C1514.55221,613.02 1517.16221,613.02 1519.80221,613.02 C1522.44221,613.02 1524.99221,613.12 1527.54221,612.96 L1527.54221,597.14 C1527.88221,596.73 1528.49221,596.32 1528.54221,595.9 C1528.62221,592.65 1528.54221,589.4 1528.54221,586.16 C1528.43221,583.17 1528.58221,580.17 1528.39221,577.19 Z" id="Path" fill="url(#linearGradient-3)"></path>
                    <path d="M1858.28221,570.18 C1856.19221,565.41 1852.46221,562 1848.28221,559.28 C1843.90221,556.43 1839.02221,554.5 1833.53221,555.19 C1832.70391,555.264979 1831.87052,555.264979 1831.04221,555.19 C1825.43221,554.85 1820.75221,557.19 1816.04221,559.85 C1812.18221,562.01 1810.34221,565.85 1807.37221,568.72 C1807.12221,568.96 1807.37221,569.72 1807.37221,570.18 C1804.12221,573.92 1803.37221,578.44 1803.37221,583.18 C1803.48236,584.657951 1803.48236,586.142049 1803.37221,587.62 C1803.16221,589.05 1803.89221,590.04 1804.37221,591.17 C1804.25221,594.81 1805.31221,597.93 1808.37221,600.17 C1808.41963,600.792062 1808.54047,601.406331 1808.73221,602 C1810.24221,605.33 1812.99221,607.49 1816.03221,609.28 C1820.60221,611.98 1825.20221,614.67 1830.87221,614.17 C1832.87221,614 1834.87221,614.17 1836.87221,614.17 C1837.9913,614.205317 1839.11033,614.097783 1840.20221,613.85 C1846.81221,611.9 1851.90221,607.71 1856.36221,602.66 C1856.61221,602.38 1856.36221,601.66 1856.36221,601.2 C1858.91221,600.06 1859.27221,597.88 1859.36221,595.33 L1842.56221,595.33 L1839.34221,599.21 L1838.34221,599.21 C1838.00221,599.54 1837.67221,599.87 1837.34221,600.21 L1835.34221,600.21 L1835.01221,599.38 C1834.78221,599.65 1834.56221,599.93 1834.34221,600.21 C1831.54221,600.92 1829.06221,599.09 1826.34221,599.21 C1825.8272,598.474528 1825.22628,597.803118 1824.55221,597.21 C1822.55453,595.700853 1821.08178,593.601925 1820.34221,591.21 C1820.52221,589.54 1821.83221,590.21 1822.63221,590.21 C1834.27221,590.21 1845.91221,590.21 1857.55221,590.21 C1858.82221,590.21 1860.08221,590.11 1861.32221,590.06 L1861.32221,583.23 C1861.66221,582.97 1862.32221,582.63 1862.32221,582.46 C1862.10221,581.58 1861.40221,580.74 1861.43221,579.9 C1861.43221,576.23 1859.73221,573.25 1858.28221,570.18 Z M1824.28221,571.18 C1827.02221,569.3 1830.08221,569.05 1833.28221,569.18 C1835.52221,569.26 1837.67221,569.24 1839.50221,570.85 C1839.89221,571.2 1840.68221,571.11 1841.29221,571.22 C1842.12221,572.54 1843.02221,573.81 1843.72221,575.22 C1844.06577,576.140794 1844.30722,577.096517 1844.44221,578.07 L1820.15221,578.07 C1820.56032,576.342194 1821.38808,574.74164 1822.56221,573.41 C1822.94647,572.744734 1823.1978,572.011138 1823.30221,571.25 C1823.62221,571.18 1824.02221,571.31 1824.26221,571.16 L1824.28221,571.18 Z" id="Shape" fill="url(#linearGradient-4)"></path>
                    <path d="M1762.54221,571.18 C1765.14221,571.18 1767.48221,571.06 1769.79221,571.18 C1771.16221,571.28 1772.85221,571.44 1773.79221,572.26 C1775.71221,573.94 1777.93221,575.49 1778.79221,577.97 L1796.60221,577.97 C1795.80221,576.04 1795.05221,574.4 1794.44221,572.71 C1793.01221,568.71 1792.31221,567.62 1789.35221,565.15 C1788.77221,564.4 1788.24221,563.6 1787.59221,562.91 C1784.17221,559.26 1780.05221,557.23 1775.10221,555.91 C1771.46221,554.91 1768.04221,555.55 1764.55221,555.2 C1762.18321,554.96564 1759.79177,555.262863 1757.55221,556.07 C1754.04675,557.263067 1750.75754,559.015737 1747.81221,561.26 C1746.88221,561.97 1746.06221,562.78 1746.41221,564.14 C1744.80221,563.7 1743.81221,564.84 1743.25221,565.88 C1741.47221,569.21 1738.81221,572.14 1738.41221,576.12 C1737.9491,577.092923 1737.61301,578.121355 1737.41221,579.18 C1737.27221,581.81 1737.41221,584.46 1737.41221,587.1 L1737.41221,588.1 C1737.56221,588.86 1736.92221,590.01 1738.41221,590.1 C1738.48221,592.6 1737.86221,595.3 1740.41221,597.1 C1740.76221,599.15 1741.14221,601.19 1743.41221,602.1 C1743.64221,602.83 1743.65221,603.8 1744.14221,604.25 C1746.25221,606.25 1748.27221,608.47 1750.76221,609.8 C1755.41221,612.28 1760.15221,614.89 1765.84221,614.13 C1767.82023,614.004756 1769.80419,614.004756 1771.78221,614.13 C1776.86221,614.13 1781.08221,611.72 1784.97221,608.93 C1787.49221,607.12 1789.52221,604.61 1791.66221,602.31 C1792.13221,601.81 1792.16221,600.89 1792.39221,600.16 C1793.88221,600.07 1793.24221,598.92 1793.39221,598.16 C1795.00221,596.16 1796.52221,594.16 1796.39221,591.27 L1778.63221,591.27 C1778.24221,592.53 1777.83221,593.85 1777.41221,595.16 C1774.87221,594.95 1774.00221,597.96 1771.64221,598.08 C1767.00221,598.28 1762.28221,598.63 1758.42221,595.16 C1756.33728,592.553794 1754.9596,589.454006 1754.42221,586.16 C1754.76221,583.16 1755.09555,580.16 1755.42221,577.16 L1762.54221,571.18 Z" id="Path" fill="url(#linearGradient-5)"></path>
                    <path d="M2025.16221,575.63 C2023.44221,574.63 2024.87221,571.54 2022.16221,571.18 L2022.16221,569.18 C2020.96221,567.41 2020.00221,565.95 2019.00221,564.53 C2017.51221,562.43 2010.93221,558.47 2008.16221,557.11 C2004.38221,555.27 2000.51221,555.11 1996.51221,555.19 C1994.20221,555.25 1991.65221,554.64 1989.63221,555.42 C1985.31221,557.08 1980.80221,558.56 1977.53221,562.27 C1974.98221,565.16 1971.94221,567.63 1970.18221,571.18 C1970.07221,571.79 1970.18221,572.62 1969.82221,572.96 C1967.82221,574.83 1968.82221,577.72 1967.27221,579.8 C1966.73221,580.54 1967.18221,582.02 1967.18221,583.16 C1967.28735,584.638133 1967.28735,586.121867 1967.18221,587.6 C1966.96221,589.03 1967.70221,590.02 1968.18221,591.15 C1968.36463,592.850129 1968.72666,594.526149 1969.26221,596.15 C1969.91221,597.61 1970.09221,599.63 1972.18221,600.15 C1972.20487,600.773812 1972.33337,601.389238 1972.56221,601.97 C1973.35388,603.325937 1974.29291,604.590271 1975.36221,605.74 C1976.54104,606.785809 1977.80173,607.735513 1979.13221,608.58 C1983.49221,611.71 1988.07221,614.26 1993.69221,614.14 C1996.33221,614.08 1998.98221,614.14 2001.62221,614.14 C2002.41624,614.147861 2003.20739,614.043497 2003.97221,613.83 C2010.56221,611.83 2015.66221,607.68 2020.13221,602.63 C2020.37221,602.35 2020.13221,601.63 2020.13221,601.17 C2022.88221,600.17 2022.43221,597.17 2024.25221,595.28 L2006.56221,595.28 L2001.14221,600.18 L1992.14221,600.18 C1991.91221,599.78 1991.77221,599.18 1991.43221,599.01 C1988.76221,597.67 1986.87221,595.44 1984.88221,593.34 C1984.40221,592.85 1984.38221,591.92 1984.15221,591.19 C1984.49221,589.25 1986.01221,590.24 1986.93221,590.24 C1999.53221,590.17 2012.13221,590.19 2024.22221,590.19 C2026.63221,588.08 2026.06221,585.58 2026.13221,583.19 C2026.45221,580.57 2024.55221,578.27 2025.16221,575.63 Z M1992.66221,569.26 L2000.74221,569.26 L2007.21221,573.17 C2007.53221,574.35 2007.86221,575.52 2008.32221,577.17 C2006.77221,577.17 2005.32221,577.07 2003.94221,577.17 C2001.76221,577.36 1999.53221,576.57 1997.38221,578.05 C1996.16926,578.620406 1994.76517,578.620406 1993.55221,578.05 C1990.95221,576.72 1988.22221,577.4 1985.63221,577.05 C1984.41221,575.49 1985.76221,574.38 1986.22221,573.13 L1992.66221,569.26 Z" id="Shape" fill="url(#linearGradient-6)"></path>
                    <path d="M1956.23221,554.2 L1956.23221,538.2 C1953.09221,538.2 1950.29221,538.2 1947.48221,538.2 C1944.67221,538.2 1941.96221,538.12 1939.24221,538.26 L1939.24221,555.71 L1931.36221,557.38 L1931.36221,570.15 L1939.24221,570.15 L1939.24221,613.09 C1941.52221,613.09 1943.74221,613.66 1945.38221,612.93 C1947.01764,612.305333 1948.76296,612.019549 1950.51221,612.09 C1952.43221,612.03 1954.34221,612.01 1956.23221,611.98 L1956.23221,570.18 L1964.02221,570.18 L1964.02221,557 L1956.19221,555.79 L1956.23221,554.2 Z" id="Path" fill="url(#linearGradient-7)"></path>
                    <path d="M1403.49221,572.18 C1403.55484,570.897413 1403.20433,569.628567 1402.49221,568.56 C1400.65507,565.891087 1398.48412,563.468097 1396.03221,561.35 C1391.81221,557.67 1386.96221,555.24 1381.18221,555.2 C1378.18221,555.2 1375.18221,555.2 1372.18221,555.2 C1371.24279,555.253523 1370.31299,555.418 1369.41221,555.69 C1363.20221,557.37 1358.30221,561.11 1354.30221,565.93 C1352.89221,567.62 1350.81221,569.37 1351.42221,572.16 C1351.08221,572.4 1350.59221,572.58 1350.42221,572.91 C1348.82296,576.069644 1348.13067,579.610698 1348.42221,583.14 C1348.08221,583.4 1347.42221,583.7 1347.42221,583.9 C1347.86221,586.65 1348.42221,589.39 1348.90221,592.12 C1349.06172,592.13775 1349.22271,592.13775 1349.38221,592.12 C1349.69221,596.12 1350.92221,598.86 1353.38221,601.12 C1353.38221,601.62 1353.17221,602.3 1353.38221,602.58 C1359.46221,609.58 1366.61221,614.45 1376.38221,614.11 C1378.20221,614.05 1380.02221,614.18 1381.84221,614.11 C1382.74221,614.06 1383.62221,613.55 1384.53221,613.47 C1388.95221,613.1 1392.23221,610.27 1395.66221,608.03 C1397.66221,606.73 1400.20221,605.23 1400.32221,602.16 C1403.03221,600.69 1403.24221,597.87 1404.54221,595.26 L1387.11221,595.26 C1386.36221,596 1385.76221,596.58 1385.18221,597.17 C1384.60221,597.76 1383.95221,598.5 1383.33221,599.17 C1382.37187,599.612231 1381.36583,599.947577 1380.33221,600.17 C1378.52932,600.335028 1376.71511,600.335028 1374.91221,600.17 C1373.70774,599.94406 1372.52623,599.609356 1371.38221,599.17 C1371.13221,598.83 1370.96221,598.38 1370.63221,598.17 C1367.51221,596.28 1366.10221,594.7 1365.38221,592.17 L1365.38221,590.17 C1372.53221,590.17 1379.32221,590.17 1386.12221,590.17 C1392.92221,590.17 1399.63221,590.34 1406.36221,590.04 L1406.36221,583.19 C1406.49251,581.913316 1406.49251,580.626684 1406.36221,579.35 C1405.92221,576.77 1405.60221,574.09 1403.49221,572.18 Z M1367.98221,573.18 C1369.98221,571.93 1371.85221,570.59 1373.73221,569.3 L1380.53221,569.3 C1383.59221,570.02 1385.46221,572.75 1388.53221,573.21 C1388.84221,574.21 1389.16221,575.21 1389.60221,576.68 C1388.11221,577.4 1386.72221,578.35 1384.68221,578.25 C1381.24221,578.08 1377.68221,578.75 1374.36221,578.04 C1371.43282,577.515786 1368.46736,577.218237 1365.49221,577.15 C1365.87221,575.73 1366.20221,574.47 1366.49221,573.21 C1367.02221,573.17 1367.62221,573.37 1368.02221,573.14 L1367.98221,573.18 Z" id="Shape" fill="url(#linearGradient-8)"></path>
                    <path d="M1596.40221,583.16 C1595.91609,582.045979 1595.57983,580.872419 1595.40221,579.67 C1595.40221,576.14 1593.82221,573.19 1592.40221,570.18 C1590.48221,565.44 1586.59221,562.09 1582.74221,559.41 C1578.89221,556.73 1573.97221,554.41 1568.61221,555.18 C1567.45482,555.290002 1566.28961,555.290002 1565.13221,555.18 C1559.52221,554.85 1554.85221,557.18 1550.13221,559.85 C1546.29221,562.02 1544.43221,565.85 1541.48221,568.71 C1541.23221,568.95 1541.48221,569.71 1541.48221,570.17 C1538.23221,573.91 1537.48221,578.43 1537.48221,583.17 C1537.48221,585.42 1537.43221,587.68 1537.48221,589.93 C1537.48221,590.35 1538.10221,590.75 1538.48221,591.16 C1538.36221,594.8 1539.41221,597.92 1542.48221,600.16 C1542.5379,600.781747 1542.66198,601.395457 1542.85221,601.99 C1544.35221,605.32 1547.11221,607.48 1550.14221,609.27 C1554.72221,611.97 1559.31221,614.66 1564.98221,614.16 C1566.98221,613.99 1568.98221,614.16 1570.93221,614.16 C1572.05463,614.195842 1573.17702,614.088307 1574.27221,613.84 C1580.87221,611.89 1585.96221,607.7 1590.43221,602.65 C1590.68221,602.37 1590.43221,601.65 1590.43221,601.19 C1592.98221,600.05 1593.35221,597.87 1593.43221,595.32 L1576.64221,595.32 L1573.42221,599.2 C1572.09395,599.615916 1570.74141,599.949878 1569.37221,600.2 C1567.88662,600.28004 1566.3978,600.28004 1564.91221,600.2 L1562.43221,600.2 C1562.16221,598.2 1560.15221,597.85 1558.91221,597.35 C1555.91221,596.17 1554.97221,593.94 1554.43221,591.21 C1554.78221,589.27 1556.30221,590.26 1557.21221,590.26 C1569.81221,590.19 1582.41221,590.21 1594.50221,590.21 C1596.90221,588 1596.33221,585.54 1596.40221,583.16 Z M1558.40221,571.16 C1561.14221,569.28 1564.20221,569.03 1567.40221,569.16 C1569.64221,569.24 1571.79221,569.22 1573.61221,570.83 C1574.01221,571.18 1574.80221,571.09 1575.41221,571.2 C1576.51221,573.35 1578.95221,574.93 1578.30221,578.02 L1554.30221,578.02 C1554.71032,576.292194 1555.53808,574.69164 1556.71221,573.36 C1557.09198,572.692697 1557.343,571.95999 1557.45221,571.2 C1557.75221,571.18 1558.16221,571.31 1558.39221,571.16 L1558.40221,571.16 Z" id="Shape" fill="url(#linearGradient-9)"></path>
                    <path d="M2052.70221,561.65 C2051.70221,559.65 2053.09221,557.32 2050.04221,556.2 C2048.37221,556.2 2045.89221,556.2 2043.42221,556.2 C2040.95221,556.2 2038.56221,555.95 2036.19221,556.38 L2036.19221,568.17 C2036.19221,568.66 2036.19221,569.17 2036.19221,569.64 C2035.89221,573.25 2036.86221,576.92 2035.32221,580.51 C2034.99221,581.3 2034.05221,583.41 2036.19221,584.15 L2036.19221,611.77 C2041.75221,613.07 2047.01221,614.24 2052.19221,611.55 L2052.19221,601.13 C2052.53221,600.73 2053.12221,600.34 2053.19221,599.91 C2053.29221,598 2053.19221,596.07 2053.19221,594.14 L2053.19221,578.19 L2058.77221,571.92 L2066.19221,571.92 L2066.19221,555.29 L2059.82221,555.29 C2057.10221,557.15 2053.53221,557.54 2052.70221,561.65 Z" id="Path" fill="url(#linearGradient-10)"></path>
                    <path d="M1328.22221,556.3 C1327.50221,560.47 1325.42221,564.54 1325.53221,569.18 C1324.84433,570.862166 1324.29582,572.598005 1323.89221,574.37 C1323.36221,578.03 1321.67221,581.37 1321.53221,585.16 C1321.60804,586.750733 1320.8503,588.266221 1319.53221,589.16 C1319.20221,587.01 1318.91221,584.86 1318.53221,582.72 C1318.42221,582.17 1317.89221,581.72 1317.53221,581.17 C1316.86221,578.84 1316.20221,576.51 1315.53221,574.17 C1315.4606,573.079044 1315.26946,571.999244 1314.96221,570.95 C1313.56221,567.04 1312.66221,562.95 1311.52221,558.95 C1311.22216,558.062555 1310.86817,557.194271 1310.46221,556.35 L1296.56221,556.35 C1295.56221,560.35 1294.76221,564.35 1293.44221,568.08 C1292.85104,569.705174 1292.54652,571.420648 1292.54221,573.15 C1292.54221,573.48 1292.66221,573.87 1292.54221,574.15 C1290.42221,577.89 1289.90221,582.15 1288.54221,586.15 L1288.54221,588.15 L1286.54221,588.15 L1286.54221,587.15 C1286.67221,583.98 1284.81221,581.25 1284.54221,578.15 C1284.71221,576.24 1283.26221,574.74 1283.39221,572.69 C1283.48221,571.23 1282.20221,569.69 1281.54221,568.16 C1281.98221,563.95 1279.98221,560.22 1279.23221,556.16 C1273.23221,556.24 1267.39221,556.03 1261.52221,556.29 C1261.74738,557.801903 1262.10543,559.291004 1262.59221,560.74 C1263.65221,563.19 1263.65221,566.05 1265.59221,568.15 C1266.0572,569.443082 1266.37259,570.785157 1266.53221,572.15 C1266.53221,574.72 1267.71221,576.87 1268.53221,579.15 C1268.67787,581.086139 1269.3334,582.94923 1270.43221,584.55 C1270.98221,585.32 1269.68221,586.9 1271.53221,587.13 C1271.07221,589.81 1272.77221,592.13 1272.78221,594.78 C1272.78221,595.23 1273.92221,595.68 1274.53221,596.12 C1274.45698,597.055156 1274.45698,597.994844 1274.53221,598.93 C1274.60221,599.37 1275.15221,599.72 1275.53221,600.12 C1275.05221,604.89 1277.53221,608.86 1278.75221,612.93 L1294.30221,612.93 C1295.77996,608.771961 1296.85817,604.482578 1297.52221,600.12 C1297.63221,599.51 1297.70221,598.89 1297.86221,598.29 C1298.02221,597.69 1298.30221,596.84 1298.52221,596.12 C1299.95795,592.987711 1300.64278,589.56355 1300.52221,586.12 C1302.91221,584.69 1302.52221,582.33 1302.52221,580.12 L1304.52221,580.12 C1304.67221,580.88 1304.02221,582.04 1305.52221,582.12 C1305.58221,584.62 1304.96221,587.32 1307.52221,589.12 C1306.80221,591.92 1308.63221,594.39 1308.52221,597.12 C1309.98221,602.46 1311.44221,607.79 1312.86221,612.95 L1328.15221,612.95 C1328.53221,612.58 1328.90221,612.38 1328.97221,612.11 C1329.74221,608.96 1331.58221,606.11 1331.57221,602.74 C1331.57221,601.6 1332.39221,600.46 1332.80221,599.31 C1333.06221,598.59 1333.27221,597.85 1333.50221,597.12 L1336.50221,586.12 C1336.78221,586 1337.30221,585.91 1337.32221,585.76 C1337.61221,583.28 1338.61221,581 1339.25221,578.65 C1340.10221,575.54 1342.19221,572.65 1341.50221,569.14 C1343.40221,565.95 1345.26221,559.54 1345.20221,556.26 L1328.22221,556.3 Z" id="Path" fill="url(#linearGradient-11)"></path>
                    <path d="M1433.48221,555.2 L1433.48221,538.2 C1430.34221,538.2 1427.54221,538.2 1424.73221,538.2 C1421.92221,538.2 1419.21221,538.12 1416.48221,538.26 L1416.48221,612.26 C1419.55221,612.26 1422.58221,611.55 1425.03221,612.43 C1427.81037,613.467496 1430.90571,613.218403 1433.48221,611.75 L1433.48221,574.17 C1434.89756,572.420401 1434.89756,569.919599 1433.48221,568.17 L1433.48221,555.2 Z" id="Path" fill="url(#linearGradient-12)"></path>
                    <path d="M1454.72221,538.23 C1451.96221,538.23 1449.19221,538.15 1446.47221,538.29 L1446.47221,613.12 C1449.61221,613.12 1452.41221,613.12 1455.22221,613.12 C1458.03221,613.12 1460.74221,613.2 1463.46221,613.06 L1463.46221,538.22 C1460.33221,538.22 1457.52221,538.21 1454.72221,538.23 Z" id="Path" fill="url(#linearGradient-13)"></path>
                    <path d="M1698.35221,592.15 C1698.35221,590.43 1698.42221,588.8 1697.41221,587.15 C1695.12221,583.42 1689.03221,579.52 1684.36221,579.15 C1683.09221,577.62 1681.19221,577.58 1679.48221,577.15 C1676.20221,576.36 1673.31221,575.04 1671.36221,572.56 L1671.36221,570.14 L1675.11221,568.29 C1676.66221,568.7 1678.11221,568.68 1678.97221,569.41 C1679.83221,570.14 1680.34221,571.76 1680.97221,572.99 L1697.51221,572.99 C1697.31179,568.857777 1695.82205,564.892124 1693.25221,561.65 C1689.75443,557.424425 1684.50546,555.045234 1679.02221,555.2 C1677.52221,555.2 1676.02221,555.32 1674.53221,555.2 C1669.53221,554.74 1665.17221,556.37 1661.20221,559.2 C1657.79079,561.593407 1655.36948,565.148932 1654.39221,569.2 L1654.39221,578.88 L1657.39221,581.18 C1657.17221,583.39 1658.86221,584.18 1660.31221,585.18 C1663.13663,587.077478 1666.27526,588.458879 1669.58221,589.26 C1673.25221,590.26 1676.58221,592.42 1680.38221,593.16 C1681.85221,594.96 1681.30221,597.16 1681.38221,599.16 L1678.66221,601.16 C1676.66221,601.03 1674.33221,601.71 1672.38221,600.16 L1670.28221,596.29 L1653.63221,596.29 C1653.7443,598.35554 1654.34768,600.364514 1655.39221,602.15 C1655.39221,602.65 1655.20221,603.26 1655.39221,603.63 C1659.11221,609.86 1664.39221,613.69 1671.83221,614.12 C1673.99221,614.24 1676.16221,613.97 1678.30221,614.12 C1683.07794,614.502782 1687.81902,613.042886 1691.55221,610.04 C1695.14221,607.33 1698.03221,603.96 1698.34221,599.11 C1699.6692,597.004517 1699.84226,594.371031 1698.80221,592.11 C1698.80221,592.11 1698.51221,592.15 1698.35221,592.15 Z" id="Path" fill="url(#linearGradient-14)"></path>
                    <path d="M1647.38221,592.15 C1647.50221,589.91 1647.38221,587.8 1645.73221,585.99 C1642.72543,582.621419 1638.76806,580.243513 1634.38221,579.17 C1632.53221,578.5 1630.70221,577.39 1628.81221,577.28 C1626.29221,577.14 1624.54221,575.58 1622.50221,574.64 C1621.36221,574.12 1619.94221,573.02 1620.39221,571.18 C1620.87221,569.08 1623.05221,569.23 1624.26221,568.18 C1629.09221,570.39 1629.09221,570.39 1629.66221,572.99 L1646.77221,572.99 C1646.25221,570.99 1645.85221,569.37 1645.37221,567.74 C1644.08362,563.129909 1640.88965,559.28842 1636.59221,557.18 C1632.52221,555.05 1628.24221,555.44 1623.94221,555.18 C1619.00746,554.793608 1614.10472,556.250887 1610.18221,559.27 C1606.56221,562 1603.74221,565.39 1603.40221,570.22 L1603.40221,578.27 L1605.99221,582.2 L1607.39221,582.2 C1607.10822,583.187578 1607.54907,584.239799 1608.45221,584.73 C1611.63221,586.26 1614.81221,587.79 1618.04221,589.17 C1622.13221,590.92 1626.27221,592.52 1630.38221,594.17 L1630.38221,599.17 L1627.67221,601.17 C1625.67221,601.04 1623.34221,601.72 1621.39221,600.17 L1619.29221,596.3 L1602.64221,596.3 C1602.75006,598.366279 1603.35373,600.376234 1604.40221,602.16 C1604.40221,602.49 1604.28221,602.88 1604.40221,603.16 C1607.61221,609.9 1613.17221,613.34 1620.40221,614.1 C1623.55553,614.291751 1626.71705,614.308443 1629.87221,614.15 C1635.78556,613.931928 1641.21401,610.821412 1644.39221,605.83 C1644.99754,605.033855 1645.6664,604.288081 1646.39221,603.6 L1646.39221,599.18 L1648.39221,597.84 C1648.39221,596.18 1648.44221,594.56 1648.39221,592.95 C1648.31221,592.64 1647.71221,592.4 1647.38221,592.15 Z" id="Path" fill="url(#linearGradient-15)"></path>
                    <path d="M1190.59221,476.31 C1190.26221,476.65 1189.92221,476.98 1189.59221,477.31 C1189.92221,477 1190.26221,476.65 1190.59221,476.31 Z" id="Path" fill="#7FB911"></path>
                </g>
            </g>
        </g>
    </g>
</svg>